<?xml version="1.0" encoding="UTF-8" standalone="no"?>
<!-- Created with Inkscape (http://www.inkscape.org/) -->

<svg
   width="1898.7854"
   height="528.74628"
   viewBox="0 0 1898.7854 528.74628"
   version="1.1"
   id="svg1"
   xml:space="preserve"
   xmlns="http://www.w3.org/2000/svg"
   xmlns:svg="http://www.w3.org/2000/svg"><defs
     id="defs1" /><g
     id="layer1"
     transform="matrix(1.1528708,0,0,1.1528708,-134.23569,-118.76971)"><g
       id="g7"><path
         d="m 354.99955,163.87826 c -0.96774,47.69208 -1.58602,253.17884 -3.13685,343.49565 -0.28988,16.86316 -7.50443,28.24522 -12.33345,33.85325 -3.43033,3.98293 -17.24311,10.64129 -43.71441,9.11983 -20.68258,-1.18861 -25.67954,-33.97352 -34.75032,-43.43894 -1.81161,-2.96142 -27.00395,0.40239 -40.22284,-3.44696 -8.21084,-2.39053 -15.22892,-7.37197 -16.32885,-8.32779 -10.75602,-9.34764 -19.91272,-19.77526 -23.4115,-38.36024 -1.14843,-7.27359 -15.82226,-10.12111 -22.15859,-13.90229 -19.86061,-11.85263 -34.52169,-41.65477 -29.36843,-64.48263 5.33007,-23.61103 36.92968,-22.27554 22.68015,-33.41871 -26.58909,-20.79178 -25.43123,-48.93252 -23.83579,-54.7714 3.68585,-13.48687 16.44747,-25.6654 26.87758,-33.24938 12.77243,-9.28861 22.84116,-8.36382 21.29893,-14.42773 -8.91061,-35.02219 -26.16314,-33.40014 -9.01758,-69.48818 5.8605,-12.33345 23.91671,-25.63963 40.81756,-24.22626 11.47961,0.95998 32.66075,24.58903 38.84716,13.28567 9.80296,-17.91099 31.45495,-40.68481 50.25055,-46.53006 19.10654,-5.94225 35.85885,7.65852 40.4778,12.53298 9.96425,10.51714 17.31322,21.74456 17.02888,35.78319 z"
         style="fill:none;stroke:#e63214;stroke-width:22.1702;stroke-linecap:butt;stroke-linejoin:miter;stroke-dasharray:none"
         id="path1" /><path
         style="font-size:249.886px;font-family:'Cyrillica Bulgarian';-inkscape-font-specification:'Cyrillica Bulgarian, Normal';fill:#5aa16e;stroke-width:20.8238"
         d="m 243.50557,350.60475 q -9.27311,0 -17.32608,6.46678 -8.05296,6.34476 -12.81154,16.47198 -4.75857,10.0052 -4.75857,19.76637 0,12.44549 6.58879,21.10853 6.5888,8.78506 17.20407,12.93356 10.61527,4.27051 22.32868,4.27051 24.03689,0 34.28612,-11.34736 4.88058,-5.49066 5.73469,-11.34737 0.97611,-5.73468 0.97611,-13.66564 0.12202,-6.58879 -5.8567,-13.66564 -5.97872,-7.07685 -14.27571,-12.68952 -8.297,-5.73469 -16.96004,-10.37125 z m 20.49846,-29.03948 q 14.51975,-6.10074 25.62308,-19.88839 11.10333,-13.78766 11.10333,-29.77158 0,-9.51714 -3.53842,-19.76637 -3.53843,-10.37125 -8.90707,-17.69212 -5.36865,-7.32088 -10.49326,-9.02909 h -0.24403 q -5.0026,0.73209 -10.24923,3.66044 -5.24663,2.92835 -8.66304,6.71081 h -7.56491 v -7.4429 l 23.67084,-23.91487 q 2.4403,-2.44029 6.10074,-3.90447 3.78245,-1.46417 6.83282,-1.46417 3.78245,0 8.05296,13.29959 l 13.2996,40.02081 q 4.75857,13.90967 3.17238,27.08725 -1.58619,13.05557 -7.56491,23.3048 -5.97872,10.12722 -13.90967,15.73989 l -14.76377,10.24923 q 9.76117,4.27051 17.69212,10.8593 8.05297,6.58879 13.78766,14.39773 5.8567,7.68692 9.02908,16.10594 3.17238,8.29699 3.17238,15.98391 0,24.15891 -18.54622,40.50887 -5.0026,4.39253 -12.68953,7.56491 -7.5649,3.29439 -16.47197,4.75857 -8.78506,1.58619 -17.20407,1.09813 l -6.46678,0.12201 q -10.73728,0.24403 -22.45069,-4.14849 -11.59139,-4.39253 -20.0104,-15.61788 -8.41901,-11.10333 -8.41901,-29.52754 0,-14.64176 9.39512,-27.33129 9.51715,-12.81153 23.79286,-19.76637 -30.38165,-17.93615 -30.38165,-46.24355 0,-8.78506 3.41641,-18.91227 3.41641,-10.12722 9.27312,-18.66824 5.8567,-8.54103 12.56751,-13.05557 h 4.75857 v 10.12722 q -6.83282,11.95743 -6.83282,23.42681 0,5.97872 3.90446,11.59139 3.90447,5.61267 9.76118,10.61527 5.8567,4.88059 16.10593,11.71341 10.24923,6.71081 10.8593,7.19887 z"
         id="text1"
         aria-label="Ó" /><g
         id="Layer1000"
         transform="matrix(2.7713129,0,0,2.7713129,116.00042,-521.42058)"><path
           d="m 125.8963,249.2023 c 12.2209,4.412 4.3759,75.3009 2.4602,87.8316 -2.8299,18.5151 -5.385,17.5016 10.4953,16.2955 4.9645,-0.3768 9.2624,-2.0211 12.9779,-4.6457 6.9384,-16.7492 8.8518,-39.3647 8.8518,-57.1616 0,-5.051 0,-10.1017 0,-15.1531 l 13.616,-18.7487 c 0,5.0513 0,10.1024 0,15.153 0,22.1741 -2.9684,51.8303 -14.9281,68.2981 l -13.6162,18.7488 c -5.0701,6.9812 -11.7563,11.5924 -20.5174,12.2576 -15.8802,1.2064 -13.3254,2.2199 -10.4953,-16.2951 1.9155,-12.5311 9.7607,-83.4197 -2.4602,-87.832 z"
           style="fill:#5aa16e;fill-rule:evenodd"
           id="path2" /></g><path
         d="m 446.03136,195.17581 c 33.86794,12.22786 12.12644,208.68236 6.81799,243.40885 -7.84337,51.31196 -14.92352,48.50324 29.08576,45.15993 81.55059,-6.19444 98.23112,-135.74224 98.23112,-223.24506 0,-13.9979 0,-27.99608 0,-41.99398"
         style="fill:none;stroke-width:2.77131"
         id="path3" /><g
         id="Layer1001"
         transform="matrix(2.7713129,0,0,2.7713129,116.00042,-521.42058)"><path
           d="m 205.8854,258.3216 c 2e-4,25.1427 -2.7454,73.9947 -6.1136,98.2147 l -13.6162,18.7484 c 3.3684,-24.2196 6.1138,-73.0716 6.1136,-98.2144 z"
           style="fill:#5aa16e;fill-rule:evenodd"
           id="path4" /></g><path
         d="m 667.70619,220.44908 c 0,69.67745 -7.60837,205.06274 -16.94326,272.18283"
         style="fill:none;stroke-width:2.77131"
         id="path5" /><g
         id="Layer1002"
         transform="matrix(2.7713129,0,0,2.7713129,116.00042,-521.42058)"><path
           d="m 243.5874,260.4553 c 2e-4,36.7564 -4.1256,53.9872 -6.4925,84.6045 -0.2293,2.9709 -0.1309,5.1544 -0.1309,7.9974 l -13.6162,18.7484 c 0,-2.8427 -0.0985,-5.0261 0.1312,-7.9971 2.3668,-30.6173 6.4924,-47.8484 6.4922,-84.6048 z"
           style="fill:#5aa16e;fill-rule:evenodd"
           id="path6" /></g><path
         d="m 772.19023,226.36139 c 0,101.86349 -11.43333,149.61543 -17.99248,234.46555 -0.63657,8.2344 -0.36304,14.28528 -0.36304,22.16329"
         style="fill:none;stroke-width:2.77131"
         id="path7" /><g
         id="Layer1003"
         transform="matrix(2.7713129,0,0,2.7713129,116.00042,-521.42058)"><path
           d="m 248.1727,254.8425 c 2.8531,-3.9281 22.5333,-13.2762 22.4173,-4.1088 -0.2287,18.0634 -3.8907,27.7253 -8.5298,34.1133 l -13.6162,18.7484 c -1.1359,1.5643 -2.3302,2.9315 -3.5472,4.1783 7.4624,-3.2738 38.3557,-29.796 33.3354,15.4186 -0.2282,2.0548 -1.036,3.8787 -2.2517,5.5528 l -13.6163,18.7487 c -4.6058,6.3419 -15.0633,10.5326 -22.0109,17.0061 l -5.6211,7.7399 c -0.3213,0.4425 -0.6949,0.3265 -1.1948,0.2675 l 13.6162,-18.7485 c 0.1167,0.0136 0.2263,0.0309 0.3305,0.0431 l 3.1135,-4.287 0.0387,-0.0534 c 3.4707,-4.7789 9.0853,-8.2854 14.3521,-11.7005 3.1389,-46.4949 -38.194,-3.1615 -35.1479,-12.1964 0.8183,-2.428 1.907,-4.4262 3.1779,-6.1762 l 13.616,-18.7487 c 1.968,-2.7095 4.3736,-4.825 6.893,-7.0221 1.9985,-5.8474 3.3123,-13.5479 3.4466,-24.1351 0.116,-9.1678 -19.5645,0.1803 -22.4173,4.1087 z"
           style="fill:#5aa16e;fill-rule:evenodd"
           id="path8" /></g><path
         d="m 784.89753,210.8074 c 7.90683,-10.88683 62.44682,-36.79334 62.12535,-11.3876 -1.53087,120.87469 -58.53318,105.99773 -75.1957,155.42215 -8.68086,25.75104 112.74311,-102.04251 96.37463,45.3833 -3.82358,34.43994 -66.40232,45.43069 -82.25562,82.93126 -1.01929,2.41105 -2.18712,1.97761 -3.87291,1.77835"
         style="fill:none;stroke-width:2.77131"
         id="path9" /><g
         id="Layer1004"
         transform="matrix(2.7713129,0,0,2.7713129,116.00042,-521.42058)"><path
           d="m 361.3109,316.577 11.0916,-15.2723 c 1.2798,-1.7624 2.366,-2.7695 3.0964,-2.743 l -7.5333,10.373 c -8.49,17.069 -17.7848,48.9006 1.0352,45.7283 l 0.0316,-0.006 c 6.4447,-16.9804 9.179,-41.4394 1.5645,-37.1497 l 11.0916,-15.2723 c 8.121,-4.9619 12.3397,-11.9707 8.6447,14.2375 -1.6376,11.6135 -9.574,34.8219 -2.059,39.6608 l 8.723,-12.0112 c 1.147,-1.5794 -0.1026,8.0057 -2.6968,11.5779 l -11.0915,15.2725 c -0.55,0.7571 -1.1604,1.2441 -1.8211,1.297 -9.39,0.7538 -8.0577,-11.5762 -5.5662,-23.8177 -0.3925,0.6393 -0.7911,1.2438 -1.1954,1.8005 l -11.0915,15.2726 c -1.7962,2.473 -3.6973,4.085 -5.6255,4.4101 -22.2937,3.7579 -5.1362,-41.602 3.4017,-53.3583 z"
           style="fill:#5aa16e;fill-rule:evenodd"
           id="path10" /></g><path
         d="m 1141.2565,327.14961 c -15.5316,-0.56285 -89.0525,167.44993 -18.0083,155.47398 34.7855,-5.86438 66.4026,-162.89334 35.1616,-145.29328 22.5058,-13.75126 34.1966,-33.17373 23.9566,39.45656 -5.1834,36.76064 -33.1424,115.44458 5.9478,112.30663 14.1235,-1.13347 19.9393,-73.79979 4.6991,-9.90939"
         style="fill:none;stroke-width:2.77131"
         id="path11" /><g
         id="Layer1005"
         transform="matrix(2.7713129,0,0,2.7713129,116.00042,-521.42058)"><path
           d="m 402.3766,250.0761 c 15.4542,4.499 78.311,-5.9656 85.7723,-15.1753 l -12.8059,17.6335 c -7.4614,9.2096 -70.3182,19.6738 -85.7726,15.1752 z"
           style="fill:#5aa16e;fill-rule:evenodd"
           id="path12" /></g><path
         d="m 1213.3672,196.05182 c 42.8284,12.46814 217.0243,-16.53171 237.7018,-42.05523"
         style="fill:none;stroke-width:2.77131"
         id="path13" /><g
         id="Layer1006"
         transform="matrix(2.7713129,0,0,2.7713129,116.00042,-521.42058)"><path
           d="m 548.6772,239.6619 c -21.8664,26.7603 9.2695,35.0912 9.2695,61.0248 0,12.6264 -30.6202,26.7833 -13.1317,58.7075 3.0867,5.6343 9.61,9.1703 2.3173,19.3114 l -5.161,5.161 c 7.2923,-10.1411 0.7693,-13.677 -2.3174,-19.3114 -17.4885,-31.9242 13.1318,-46.0811 13.1318,-58.7071 0,-25.934 -31.1359,-34.2649 -9.2696,-61.0251 z"
           style="fill:#e30016;fill-rule:evenodd"
           id="path14" /></g><path
         d="m 1629.405,149.90891 c -60.5984,74.16116 25.6889,97.24786 25.6889,169.11909 0,34.99143 -84.8581,74.22463 -36.3923,162.69658 8.5542,15.61468 26.6315,25.41377 6.4222,53.51793"
         style="fill:none;stroke-width:2.77131"
         id="path15" /><g
         id="Layer1007"
         transform="matrix(2.7713129,0,0,2.7713129,116.00042,-521.42058)"><path
           d="m 439.2733,251.3956 c 1.6571,15.1842 0.5555,103.09 -3.1037,108.1286 l -12.8063,17.6334 c -0.376,0.5178 -0.7789,0.1602 -1.2088,-1.2415 l 2.319,-3.1933 c 2.7574,-18.9896 3.4691,-90.1729 1.9935,-103.6941 z"
           style="fill:#5aa16e;fill-rule:evenodd"
           id="path16" /></g><path
         d="m 1315.6186,199.70857 c 5.0649,46.40563 0.8314,337.8987 -11.9515,296.21843"
         style="fill:none;stroke-width:2.77131"
         id="path17" /><g
         id="Layer1008"
         transform="matrix(2.7713129,0,0,2.7713129,116.00042,-521.42058)"><path
           d="m 498.9448,246.6237 c 1.1778,43.1212 -11.6038,73.0348 -13.9111,111.5012 -0.5735,9.5676 21.9047,-6.9694 26.9479,-8.5509 l -13.4006,15.9965 c -5.0432,1.5813 -27.5214,18.1182 -26.9479,8.5509 2.3073,-38.4667 15.0892,-68.3799 13.9111,-111.5015 z"
           style="fill:#5aa16e;fill-rule:evenodd"
           id="path18" /></g><path
         d="m 1480.1637,184.2161 c 3.2646,119.50317 -32.1578,202.40228 -38.5515,309.00471 -1.5899,26.51482 60.7042,-19.31411 74.6805,-23.69639"
         style="fill:none;stroke-width:2.77131"
         id="path19" /><g
         id="Layer1009"
         transform="matrix(2.7713129,0,0,2.7713129,116.00042,-521.42058)"><path
           d="m 494.9331,305.2817 c 10.2017,-3.164 13.1924,-6.1691 21.561,-12.5696 l -13.4006,15.9963 c -8.3686,6.4007 -11.3594,9.4058 -21.561,12.5695 z"
           style="fill:#5aa16e;fill-rule:evenodd"
           id="path20" /></g><path
         d="m 1469.0466,346.77577 c 28.2712,-8.76843 36.5602,-17.09651 59.7522,-34.83402"
         style="fill:none;stroke-width:2.77131"
         id="path21" /><g
         id="Layer1010"
         transform="matrix(2.7713129,0,0,2.7713129,116.00042,-521.42058)"><path
           d="m 487.0482,270.4011 c 0.0462,-0.2429 0.176,-0.4849 0.3786,-0.727 l 13.4006,-15.9962 c 2.2592,-2.6969 13.5752,-5.383 18.9448,-9.172 l 2.7389,-3.2692 c -0.1476,0.5678 -0.457,1.1133 -0.8964,1.6379 l -13.38,15.9719 -0.0206,0.0246 c -3.5958,4.2923 -15.9145,7.2168 -19.9163,10.0387 z"
           style="fill:#5aa16e;fill-rule:evenodd"
           id="path22" /></g><path
         d="m 1484.3323,205.78024 c 1.9236,-10.16878 56.7955,-19.77193 61.1415,-36.4932"
         style="fill:none;stroke-width:2.77131"
         id="path23" /><g
         id="Layer1011"
         transform="matrix(2.7713129,0,0,2.7713129,116.00042,-521.42058)"><path
           d="m 564.8989,259.7462 c 8.4696,8.7616 17.3706,37.109 5.1873,49.2923 l -1.5032,1.5032 c -8.874,9.5181 -11.7826,26.8102 -6.0015,37.2655 l -5.161,5.161 c -5.9154,-10.6979 -2.7338,-28.5554 6.6277,-37.9169 l 1.4007,-1.4007 c 11.3968,-12.465 2.6334,-40.1109 -5.711,-48.7433 z"
           style="fill:#e30016;fill-rule:evenodd"
           id="path24" /></g><path
         d="m 1674.3607,205.56906 c 23.6955,24.51144 48.6085,104.34326 13.3945,137.55689 -27.0602,25.52407 -36.5115,76.29508 -19.8168,106.48742"
         style="fill:none;stroke-width:2.77131"
         id="path25" /><g
         id="Layer1012"
         transform="matrix(2.7713129,0,0,2.7713129,116.00042,-521.42058)"><path
           d="m 290.467,330.9003 c 1.4033,-1.0389 2.5803,-2.1609 3.5653,-3.3423 1.9159,-8.4348 -0.7439,-17.1998 0.8197,-20.4437 l 4.116,-8.539 c 1.1228,-2.3294 4.4242,-1.8118 13.1621,3.7203 12.3226,7.8014 27.5441,-2.6411 26.9147,-1.3353 l -4.116,8.539 c -0.4311,0.8944 -8.3034,7.3041 -29.6474,28.8757 -1.2421,1.2554 -2.3181,2.5046 -3.2394,3.7423 -3.8494,17.0791 19.883,28.5222 30.8206,15.2695 1.9098,-9.4018 -10.3947,-7.9645 -16.0153,-2.6581 l -2.6927,5.5862 c -0.031,-1.0016 0.203,-1.9664 0.6404,-2.874 l 4.1162,-8.5394 c 3.6728,-7.6195 21.6896,-11.2041 17.696,1.3706 -0.3649,1.1492 -0.7876,2.2134 -1.2608,3.1952 l -4.094,8.4934 -0.0222,0.046 c -9.8848,20.507 -41.8459,5.2183 -31.7982,-15.6266 l 4.116,-8.5393 c 1.2538,-2.6014 3.1622,-5.2891 5.8493,-8.0051 7.4473,-7.5264 13.2525,-13.2051 17.6756,-17.4501 -5.3511,1.6154 -12.6022,2.5369 -19.059,-1.5509 -4.3265,-2.7391 -7.3195,-4.2482 -9.3756,-4.7919 0.333,5.1292 0.7455,11.7268 -2.0793,17.5875 l -4.1163,8.5391 c -1.2723,2.64 -3.202,5.1304 -6.0917,7.2699 z"
           style="fill:#5aa16e;fill-rule:evenodd"
           id="path26" /></g><path
         d="m 915.272,407.43981 c 54.84456,-40.60306 -15.11308,-126.84853 60.03523,-79.2723 57.54827,36.43362 137.90917,-70.7106 -7.57344,76.32196 -69.97344,70.71947 50.63101,134.64756 75.40741,56.63649 12.3858,-38.99985 -51.62262,-21.91388 -50.81672,4.16667"
         style="fill:none;stroke-width:2.77131"
         id="path27" /><g
         id="Layer1013"
         transform="matrix(2.7713129,0,0,2.7713129,116.00042,-521.42058)"><path
           d="m 573.8732,333.6469 c 0,-10.2169 3.0588,-14.1426 6.4525,-17.536 l 3.1297,-3.1297 c 3.8013,-4.1009 6.9588,-9.7909 5.4692,-25.5345 -0.0553,-0.5842 -0.9689,-1.9239 -1.2515,-2.3998 l 5.1613,-5.1614 c 0.2826,0.476 1.1962,1.8156 1.2515,2.3999 1.6228,17.1487 -2.2683,22.3693 -6.4996,26.6006 l -3.1226,3.1229 c -2.9617,3.1989 -5.4292,7.3 -5.4292,16.4766 z"
           style="fill:#e30016;fill-rule:evenodd"
           id="path28" /></g><path
         d="m 1713.5343,396.06745 c 0,-69.16615 50.5836,-34.2925 41.7121,-128.03521 -0.153,-1.61817 -2.6851,-5.33173 -3.4683,-6.6506"
         style="fill:none;stroke-width:2.77131"
         id="path29" /></g></g></svg>
